<svg width="27" height="27" viewBox="0 0 27 27" fill="none" xmlns="http://www.w3.org/2000/svg">
<path d="M25.7093 22.9363C25.7093 22.9363 24.0764 24.5223 23.6762 24.9873C23.0244 25.6752 22.2563 26 21.2495 26C21.1526 26 21.0494 26 20.9526 25.9936C19.0357 25.8726 17.2543 25.1338 15.9183 24.5032C12.2652 22.758 9.05748 20.2803 6.3919 17.1401C4.19101 14.5223 2.71946 12.1019 1.74487 9.50319C1.14463 7.9172 0.925188 6.68153 1.022 5.51592C1.08654 4.7707 1.37698 4.15287 1.91268 3.6242L4.11356 1.45223C4.42982 1.15924 4.76544 1 5.0946 1C5.50122 1 5.83038 1.24204 6.03691 1.44586C6.04337 1.45223 6.04982 1.4586 6.05628 1.46497C6.44998 1.82803 6.82433 2.20382 7.21803 2.6051C7.41811 2.80892 7.62465 3.01274 7.83118 3.22293L9.59318 4.96178C10.2773 5.63694 10.2773 6.26115 9.59318 6.93631C9.40601 7.12102 9.22529 7.30573 9.03812 7.48408C8.49596 8.03185 8.92186 7.61155 8.36034 8.10836C8.34743 8.1211 8.33452 8.12747 8.32807 8.14021C7.77301 8.68798 7.87628 9.22301 7.99245 9.58607C7.99891 9.60518 8.00536 9.62428 8.01181 9.64339C8.47006 10.7389 9.11548 11.7708 10.0965 13.0001L10.103 13.0064C11.8843 15.1721 13.7625 16.86 15.8343 18.1529C16.0989 18.3186 16.37 18.4523 16.6282 18.5797C16.8605 18.6943 17.08 18.8026 17.2671 18.9173C17.293 18.93 17.3188 18.9491 17.3446 18.9619C17.564 19.0701 17.7706 19.1211 17.9836 19.1211C18.5192 19.1211 18.8549 18.7899 18.9646 18.6816L20.2297 17.4331C20.4491 17.2166 20.7977 16.9554 21.2043 16.9554C21.6044 16.9554 21.9336 17.2038 22.1337 17.4204C22.1401 17.4268 22.1401 17.4267 22.1466 17.4331L25.7029 20.9427C26.3676 21.5924 25.7093 22.9363 25.7093 22.9363Z" fill="black" stroke="black" stroke-width="2" stroke-linecap="round" stroke-linejoin="round"/>
</svg>
